# xmcd
#
# Track frame offsets:
#	150
#	17497
#	41305
#	53192
#	69418
#	92727
#	104769
#	124947
#	149254
#	163505
#	178956
#	207157
#	224783
#	246384
#	265132
#	277513
#	294160
#
# Disc length: 4157 seconds
#
# Revision: 0
# Processed by: cddbd v1.5.2PL0 Copyright (c) Steve Scherf et al.
# Submitted via: audiograbber 1.83.01
#
DISCID=fe103b11
DTITLE=Various Artist - Straight Blues 4 You
DYEAR=2003
DGENRE=Blues
TTITLE0=Big George Jackson - Tell Me
TTITLE1=Doug MacLeod - Plowin'Mule
TTITLE2=Roscoe Chenier - Stick To You Baby
TTITLE3=Sunset Travelers - Get Up Jake
TTITLE4=Byther Smith - So Many Roads, So Many Trains
TTITLE5=Percy Strother - Take My Love
TTITLE6=Boo Boo Davis - Can Man
TTITLE7=Mike Anderson - My Love For The Blues
TTITLE8=Percy Strother - I Ain't Superstitious
TTITLE9=Erskine Oglesby - Good To See You
TTITLE10=Byther Smith - Five Long Years
TTITLE11=Doug MacLeod - East Texas Sugar
TTITLE12=Boo Boo Davis - We're In Hell
TTITLE13=Big George Jackson - Rubbish Truck
TTITLE14=Roscoe Chenier - A Mother's Love
TTITLE15=Mike Andersen - I Was Wrong
TTITLE16=Sunset Travelers - I Washed My Hands In Muddy Water
EXTD=
EXTT0=
EXTT1=
EXTT2=
EXTT3=
EXTT4=
EXTT5=
EXTT6=
EXTT7=
EXTT8=
EXTT9=
EXTT10=
EXTT11=
EXTT12=
EXTT13=
EXTT14=
EXTT15=
EXTT16=
PLAYORDER=
